<svg xmlns="http://www.w3.org/2000/svg" id="Component_413_1" width="44" height="39.184"
     data-name="Component 413 – 1" viewBox="0 0 44 39.184">
    <defs>
        <style>
            #Component_413_1 .cls-3{fill:#19874b}
        </style>
    </defs>
    <path id="Rectangle_4213" fill="none" d="M0 0H44V39H0z" data-name="Rectangle 4213"/>
    <g id="Group_3008" data-name="Group 3008" transform="translate(-368 -9176)">
        <path id="Path_2889" fill="#42b95c" d="M11.262 0A11.262 11.262 0 1 1 0 11.262 11.262 11.262 0 0 1 11.262 0z" data-name="Path 2889" transform="translate(386.31 9188.427)"/>
        <g id="Group_1583" data-name="Group 1583" transform="translate(370.53 9176)">
            <path id="Path_2887" d="M2.429 18.161h14.845a.561.561 0 0 0 .594-.594v-3.5a4.169 4.169 0 0 0-4.157-4.157h-1.96a4.642 4.642 0 1 0-6.472-4.278A4.735 4.735 0 0 0 8.07 9.907H6.051a4.169 4.169 0 0 0-4.157 4.157v3.5a.517.517 0 0 0 .535.597zM6.467 5.632a3.444 3.444 0 1 1 3.444 3.444 3.447 3.447 0 0 1-3.444-3.444zm-3.444 8.432a2.978 2.978 0 0 1 2.969-2.969h7.66a2.978 2.978 0 0 1 2.969 2.969v2.91H2.964v-2.91z" class="cls-3" data-name="Path 2887" transform="translate(-1.887 -1)"/>
        </g>
        <g id="Group_1584" data-name="Group 1584" transform="translate(370.479 9194.764)">
            <path id="Path_2888" d="M2.394 33.788h12.945a.594.594 0 1 0 0-1.188H2.394a.561.561 0 0 0-.594.594.639.639 0 0 0 .594.594z" class="cls-3" data-name="Path 2888" transform="translate(-1.8 -32.6)"/>
        </g>
        <g id="Group_1581" data-name="Group 1581" transform="translate(370 9187.565)">
            <path id="Path_2885" d="M39 27.2a11.813 11.813 0 0 0-15.973-5.463 12.184 12.184 0 0 0-5.7 15.617L14.3 38.839l-1.069-2.2a.608.608 0 0 0-.356-.3.465.465 0 0 0-.475.059l-9.74 4.757a3.037 3.037 0 0 0-1.366 4.038l.594 1.247a3 3 0 0 0 3.978 1.366l9.8-4.869a.589.589 0 0 0 .3-.772l-1.069-2.256 3.028-1.484A11.724 11.724 0 0 0 33.6 43.352 12.269 12.269 0 0 0 39 27.2zM5.332 46.737a1.828 1.828 0 0 1-2.375-.772l-.594-1.247a1.938 1.938 0 0 1 .831-2.494l9.2-4.572 2.138 4.453zM33 42.284a10.656 10.656 0 0 1-14.37-4.929 10.994 10.994 0 0 1 4.929-14.607 10.656 10.656 0 0 1 14.37 4.929A11.1 11.1 0 0 1 33 42.284z" class="cls-3" data-name="Path 2885" transform="translate(-.994 -20.478)"/>
        </g>
        <path id="Path_2890" fill="#42b95c" d="M532.925 786.449v-2.918a3.889 3.889 0 0 1 3.856-2.579c3.074.026 0-1.172 0-1.172s-2.214-2.528-.625-4.3 2.475-1.433 2.475-1.433 2.318.183 2.865 2.137a2.884 2.884 0 0 1-.443 2.891l-1.745 1.745 3.152.469s2.032 1.745 1.98 3.621-.677 1.537-.677 1.537z" data-name="Path 2890" transform="translate(-141.237 8418.183)"/>
        <path id="Path_2886" d="M44.751 34.247h-.178a3.741 3.741 0 1 0-3.919 0h-.3A4.169 4.169 0 0 0 36.2 38.4v1.96a.561.561 0 0 0 .594.594h11.579a.561.561 0 0 0 .594-.594V38.4a4.22 4.22 0 0 0-4.216-4.153zm-2.138-5.76a2.553 2.553 0 1 1-2.553 2.553 2.534 2.534 0 0 1 2.553-2.552zM47.72 39.77H37.388V38.4a2.978 2.978 0 0 1 2.969-2.969h4.394A2.978 2.978 0 0 1 47.72 38.4v1.37z" class="cls-3" data-name="Path 2886" transform="translate(354.705 9164.316)"/>
    </g>
</svg>