<?xml version="1.0" encoding="UTF-8"?>
<svg width="269px" height="49px" fill="#c0c0c0" viewBox="0 0 269 49" version="1.1" xmlns="http://www.w3.org/2000/svg">
    <defs>
        <path d="M114.534263,3.71117788 C115.241132,2.996123 115.955132,2.28787584 116.676162,1.58653846 C117.055176,1.94350962 117.418678,2.28858173 117.765995,2.62043269 C118.140786,2.9793203 118.510838,3.34293229 118.876059,3.71117788 C118.514255,4.05097745 118.157238,4.3956415 117.80511,4.74507212 C117.436371,5.11029787 117.059745,5.46779066 116.675488,5.81730769 L114.533589,3.71117788 L114.534263,3.71117788 Z M110.191118,3.71117788 C110.897986,2.99612232 111.611986,2.28787516 112.333017,1.58653846 C112.712705,1.94350962 113.076208,2.28858173 113.423524,2.62043269 C113.798316,2.97931994 114.168368,3.34293193 114.533589,3.71117788 C114.171784,4.05097745 113.814767,4.3956415 113.46264,4.74507212 C113.093901,5.11029787 112.717275,5.46779066 112.333017,5.81730769 L110.191118,3.71117788 L110.191118,3.71117788 Z M118.876059,3.71117788 C119.582927,2.99612232 120.296928,2.28787516 121.017958,1.58653846 C121.397646,1.94350962 121.761149,2.28858173 122.108465,2.62043269 C122.483257,2.97932009 122.853309,3.34293208 123.21853,3.71117788 C122.856725,4.05097745 122.499708,4.3956415 122.147581,4.74507212 C121.778842,5.11029759 121.402216,5.46779037 121.017958,5.81730769 L118.876059,3.71117788 L118.876059,3.71117788 Z M62.4239419,10.0573317 C63.1308096,9.34227634 63.8448102,8.63402918 64.5658408,7.93269231 C64.9455287,8.28966346 65.3090311,8.63473558 65.6563478,8.96658654 C66.0311392,9.32547399 66.4011915,9.68908598 66.7664125,10.0573317 C66.4046078,10.3971313 66.0475908,10.7417953 65.6954631,11.091226 C65.3267243,11.4564517 64.9500983,11.8139445 64.5658408,12.1634615 L62.4239419,10.0573317 L62.4239419,10.0573317 Z M58.0814713,10.0573317 C58.788339,9.34227634 59.5023396,8.63402918 60.2233702,7.93269231 C60.6030582,8.28966346 60.9665605,8.63473558 61.3138772,8.96658654 C61.6886686,9.32547399 62.058721,9.68908598 62.4239419,10.0573317 C62.0621372,10.3971313 61.7051203,10.7417953 61.3529925,11.091226 C60.9842537,11.4564517 60.6076277,11.8139445 60.2233702,12.1634615 L58.0814713,10.0573317 L58.0814713,10.0573317 Z M45.0540596,10.0573317 C45.7607035,9.34227944 46.4744792,8.63403229 47.195284,7.93269231 C47.574972,8.28966346 47.9384744,8.63473558 48.2857911,8.96658654 C48.6605825,9.32547394 49.0306349,9.68908593 49.3958558,10.0573317 C49.0340511,10.3971313 48.6770341,10.7417953 48.3249064,11.091226 C47.9561673,11.4564514 47.5795413,11.8139442 47.195284,12.1634615 L45.0533852,10.0573317 L45.0540596,10.0573317 Z M13.5709793,19.0477163 C14.2778467,18.3326607 14.9918473,17.6244135 15.7128781,16.9230769 C16.0925661,17.2800481 16.4560684,17.6251202 16.8033852,17.9569712 C17.1781766,18.3158586 17.5482289,18.6794705 17.9134499,19.0477163 C17.5516451,19.3875159 17.1946282,19.73218 16.8425004,20.0816106 C16.4737614,20.446836 16.0971353,20.8043288 15.7128781,21.1538462 L13.5709793,19.0477163 L13.5709793,19.0477163 Z M9.22783429,19.0477163 C9.93470185,18.3326608 10.6487024,17.6244137 11.3697331,16.9230769 C11.7500955,17.2800481 12.1135979,17.6251202 12.4609146,17.9569712 C12.835706,18.3158586 13.2057584,18.6794705 13.5709793,19.0477163 C13.2091746,19.3875159 12.8521576,19.73218 12.5000299,20.0816106 C12.1312908,20.446836 11.7546648,20.8043288 11.3704075,21.1538462 L9.22850869,19.0477163 L9.22783429,19.0477163 Z M85.2220811,2.12463942 C85.9289486,1.40958385 86.6429492,0.701336695 87.3639799,0 C87.7436679,0.356971154 88.1071703,0.702043269 88.454487,1.03389423 C88.8292784,1.39278163 89.1993308,1.75639362 89.5645517,2.12463942 C89.2027469,2.46443899 88.84573,2.80910303 88.4936023,3.15853365 C88.1248632,3.52375913 87.7482371,3.88125191 87.3639799,4.23076923 L85.2220811,2.12463942 L85.2220811,2.12463942 Z M4.34314498,3.71117788 C5.05001246,2.99612229 5.76401303,2.28787513 6.48504381,1.58653846 C6.8647318,1.94350962 7.22823415,2.28858173 7.57555087,2.62043269 C7.95034229,2.97932009 8.32039465,3.34293208 8.68561557,3.71117788 C8.32381085,4.05097745 7.96679391,4.3956415 7.61466615,4.74507212 C7.24592708,5.11029759 6.86930105,5.46779037 6.48504381,5.81730769 L4.34314498,3.71117788 L4.34314498,3.71117788 Z M81.4225036,15.3365385 C80.9281453,15.2974589 80.445562,15.1683271 79.9995167,14.9557692 C79.5291455,14.7319498 79.0965521,14.4387821 78.7168052,14.0864784 C78.3351631,14.4326115 77.9050494,14.7235491 77.439489,14.9504808 C76.9849424,15.1699519 76.1163134,15.2988582 74.833602,15.3365385 L58.0814713,15.3365385 L58.0814713,13.1438101 L74.833602,13.1438101 C75.8209256,13.1134014 76.4117013,13.0492788 76.6059289,12.9507813 C76.8001565,12.8516226 76.9714544,12.7253606 77.1184739,12.570012 C77.2668422,12.4146635 77.3835137,12.2289063 77.4691626,12.0134014 C77.5541372,11.7972356 77.5972989,11.5572716 77.5972989,11.2915264 L77.5972989,7.06538462 L79.8248467,7.06538462 L79.8248467,11.2915264 C79.8248467,11.5566106 79.8693572,11.7972356 79.9590526,12.0134014 C80.1164185,12.4191708 80.4218779,12.7532159 80.8162168,12.9507813 C81.0104444,13.0492788 81.2120904,13.1134014 81.4225036,13.1438101 L81.4225036,13.1550481 L83.5448448,13.1550481 C83.4211458,12.8344803 83.3197533,12.5060635 83.2413642,12.1720553 C83.1751,11.8945923 83.1400468,11.6108483 83.136832,11.3259014 L83.136832,9.178125 C83.136832,8.62548077 83.2454106,8.10655048 83.4632422,7.62199519 C83.6741761,7.14686565 83.9748431,6.71510604 84.3494057,6.34945913 C84.7269722,5.98274636 85.1720764,5.68956352 85.6611164,5.48545673 C86.167713,5.27261639 86.7136848,5.16459233 87.2648429,5.16814904 C87.8326889,5.16814904 88.3668148,5.27391827 88.8685694,5.48545673 C89.3696497,5.69765625 89.8073362,5.9858774 90.1802801,6.34945913 C90.5538985,6.71304087 90.8492863,7.13677885 91.0664436,7.62199519 C91.2855048,8.11251003 91.3969419,8.64268009 91.3935282,9.178125 L91.3935282,11.3259014 C91.3935282,11.5837139 91.3564362,11.8653245 91.282252,12.1720553 C91.2080679,12.4787861 91.1055589,12.8066707 90.9733762,13.1550481 L102.762587,13.1550481 C103.088997,13.1550481 103.374943,13.1074519 103.619751,13.0129207 C103.864559,12.9183894 104.064856,12.7914663 104.219968,12.6321514 C104.375755,12.4734976 104.492427,12.2936899 104.570657,12.0927284 C104.648213,11.8917668 104.686654,11.6894832 104.686654,11.4845553 C104.686654,11.2650841 104.64619,11.0509014 104.564587,10.8433293 C104.394361,10.4058456 104.045508,10.0579039 103.602217,9.88347356 C103.361455,9.7843149 103.081579,9.73539663 102.762587,9.73539663 L96.3368905,9.73539663 C96.0178986,9.7499399 95.7164412,9.72217548 95.4331926,9.64945913 C95.149944,9.5780649 94.9004155,9.46436298 94.6866303,9.30901442 C94.4770364,9.15832033 94.3038833,8.96421751 94.1794804,8.74050481 C94.0510476,8.50082247 93.9867715,8.23311109 93.9926712,7.9624399 L93.9926712,7.82626202 C93.9926712,7.7733774 93.9967176,7.72049279 94.0048105,7.66760817 C94.0318592,7.44707508 94.0885511,7.23101831 94.1734108,7.0250601 C94.3348994,6.64111327 94.557272,6.28459286 94.832301,5.9686899 C94.9725765,5.80606971 95.1202704,5.6375 95.2753827,5.46298077 C95.3154245,5.41091887 95.3543239,5.35802212 95.3920541,5.30432692 L97.0713136,3.44014423 C97.6310668,2.81941106 98.1908199,2.19471154 98.7505731,1.56604567 C99.0621465,1.83046875 99.3453951,2.07175481 99.602342,2.28725962 C99.8586146,2.50342548 100.135119,2.73215144 100.430507,2.97475962 L96.3604945,7.54266827 L102.809121,7.54266827 C103.399896,7.54266827 103.948859,7.64645433 104.453311,7.8546875 C104.959112,8.06292067 105.394101,8.34122596 105.759627,8.68960337 C106.125275,9.03825106 106.418437,9.45312905 106.622861,9.91123798 C106.832599,10.3772837 106.937806,10.8631611 106.937806,11.3715144 C106.937806,11.8104567 106.789438,12.4054087 106.494724,13.1550481 L108.027639,13.1550481 C108.237377,13.1246394 108.432279,13.0373798 108.626507,12.9388822 C108.820735,12.8403846 108.992033,12.7141226 109.139052,12.558774 C109.28742,12.4034255 109.404092,12.2176683 109.489741,12.0015024 C109.574715,11.7859976 109.617877,11.5453726 109.617877,11.2809495 L109.617877,7.05348558 L111.845425,7.05348558 L111.845425,11.2802885 C111.845425,11.5757813 111.899377,11.8408654 112.00863,12.0755409 C112.117209,12.3102163 112.258833,12.5072115 112.433503,12.6665264 C112.608847,12.8251803 112.809145,12.9468149 113.034395,13.0301082 C113.260319,13.1134014 113.489616,13.1550481 113.722284,13.1550481 C113.956301,13.1550481 114.185598,13.1134014 114.410173,13.0294471 C114.636098,12.9468149 114.836395,12.8258413 115.011065,12.6658654 C115.186409,12.5072115 115.328034,12.3102163 115.437287,12.0755409 C115.545865,11.8408654 115.600492,11.5757813 115.600492,11.2802885 L115.600492,7.05348558 L117.839505,7.05348558 L117.839505,11.2802885 C117.839505,11.5757813 117.892108,11.8388822 117.99664,12.0702524 C118.190473,12.5077819 118.556534,12.8499109 119.011614,13.0188702 C119.232818,13.1021635 119.460091,13.1477764 119.693434,13.1550481 C119.926777,13.1477764 120.15405,13.1021635 120.375928,13.0188702 C120.831273,12.848345 121.198495,12.5069461 121.396298,12.0702524 C121.504876,11.8388822 121.559503,11.5757813 121.559503,11.2802885 L121.559503,7.05348558 L123.78705,7.05348558 L123.78705,11.3259014 C123.78705,11.8633413 123.676449,12.3690505 123.454571,12.8423678 C123.23782,13.3091269 122.935384,13.7328546 122.562338,14.0924279 C122.186023,14.4543283 121.747737,14.7485695 121.267487,14.9617188 C120.77904,15.1810117 120.252827,15.3081679 119.716364,15.3365385 C119.16946,15.3189015 118.631239,15.1974477 118.13152,14.9789062 C117.610364,14.7552657 117.129767,14.4500627 116.708533,14.0752404 C116.256684,14.4996394 115.777185,14.8063702 115.268012,14.9954327 C114.772555,15.1818486 114.252106,15.2967495 113.722958,15.3365385 C113.188636,15.3244813 112.661809,15.2106481 112.171835,15.0013822 C111.641133,14.7793411 111.155307,14.4658957 110.737383,14.0759014 C110.354413,14.422494 109.922383,14.7130534 109.454672,14.9385817 C108.996079,15.1587139 108.525347,15.2988582 108.027639,15.3365385 L81.4225036,15.3365385 L81.4225036,15.3365385 Z M85.3879838,11.2915264 C85.3879838,11.5870192 85.4399127,11.8501202 85.5451194,12.0814904 C85.6496516,12.3128606 85.7899271,12.5072115 85.964597,12.6665264 C86.1399414,12.8251803 86.3395642,12.9487981 86.5648143,13.0360577 C86.7840933,13.1216761 87.016809,13.1695347 87.2527037,13.177524 L87.2419133,13.177524 C87.4826746,13.1927284 87.7160174,13.1643029 87.9412675,13.0922476 C88.1665176,13.0208534 88.368838,12.9071514 88.5482288,12.7518029 C88.7262707,12.5964543 88.8705926,12.397476 88.9798457,12.1555288 C89.0877499,11.9129207 89.1423764,11.6246995 89.1423764,11.2915264 L89.1423764,9.23563702 C89.1423764,8.90180288 89.0884243,8.61424279 88.9791713,8.37163462 C88.8820006,8.14558011 88.7369504,7.94233675 88.553624,7.77536058 C88.3782796,7.62001202 88.1759592,7.50432692 87.9466627,7.42896635 C87.7237546,7.35414194 87.4888838,7.31942923 87.2533781,7.3265024 C87.0200352,7.34170673 86.7907387,7.39260817 86.5654887,7.47986779 C86.3435765,7.56481984 86.1399596,7.6899549 85.9652714,7.84873798 C85.7899271,8.00805288 85.6496516,8.2030649 85.5451194,8.4344351 C85.4399127,8.66580529 85.3873094,8.93221154 85.3873094,9.23497596 L85.3873094,11.2915264 L85.3879838,11.2915264 Z M92.9547675,7.0078726 C92.8450516,6.67080004 92.8132603,6.31401428 92.8617001,5.96340144 C92.9008154,5.70558894 92.9648835,5.47091346 93.0539045,5.25871394 C93.1435999,5.04651442 93.2521785,4.84753606 93.3803148,4.66177885 C93.508451,4.47668269 93.6507497,4.29489183 93.8065364,4.11640625 L94.284687,3.56574519 L97.1299865,0.372836538 L98.1092173,1.22560096 L92.9547675,7.00853365 L92.9547675,7.0078726 Z M53.9467164,1.81592548 L53.9467164,11.2465745 C53.9467164,11.6022236 53.939298,11.9671274 53.9231123,12.3426082 C53.9081585,12.713936 53.8694165,13.0839759 53.8071153,13.4505409 C53.7473658,13.8044699 53.6555076,14.1524652 53.5326339,14.4903846 C53.4183517,14.8088022 53.2508379,15.1063716 53.0369489,15.3709135 C52.7651651,15.2115986 52.516311,15.0714543 52.291061,14.9504808 C52.0486284,14.8199744 51.8074075,14.6873167 51.5674283,14.552524 C51.6146364,14.3099159 51.651054,14.0448317 51.6787045,13.7572716 C51.7056806,13.4697115 51.7191686,13.1550481 51.7191686,12.8139423 L51.7191686,12.5640625 C51.7191686,12.4655649 51.7117502,12.375 51.6962389,12.2917067 L51.6962389,1.81592548 L53.9467164,1.81592548 L53.9467164,1.81592548 Z M14.1637781,13.1550481 C15.1511017,13.1246394 15.7418774,13.0605168 15.936105,12.9620192 C16.1303326,12.8628606 16.3016305,12.7365986 16.4493244,12.58125 C16.5970183,12.4259014 16.7136898,12.2401442 16.7993387,12.0246394 C16.8849877,11.8084736 16.927475,11.5685096 16.927475,11.3027644 L16.927475,7.0766226 L19.1550228,7.0766226 L19.1550228,11.3027644 C19.1550228,11.5678486 19.1995333,11.8084736 19.2892287,12.0246394 C19.4465946,12.4304088 19.752054,12.7644539 20.1463929,12.9620192 C20.3406205,13.0605168 20.5429409,13.1246394 20.7526797,13.1550481 L37.1777257,13.1550481 C37.504136,13.1550481 37.7900822,13.1074519 38.0348899,13.0129207 C38.2796976,12.9183894 38.4799948,12.7914663 38.6351071,12.6321514 C38.7908938,12.4734976 38.9075653,12.2936899 38.9857958,12.0927284 C39.063352,11.8917668 39.1024673,11.6894832 39.1024673,11.4845553 C39.1024673,11.2650841 39.0613288,11.0509014 38.9797262,10.8433293 C38.8094999,10.4058456 38.4606466,10.0579039 38.0173554,9.88347356 C37.7765941,9.7843149 37.4967176,9.73539663 37.1777257,9.73539663 L30.7520292,9.73539663 C30.4337118,9.7499399 30.1315799,9.72217548 29.8483313,9.64945913 C29.5650828,9.5780649 29.3155542,9.46436298 29.101769,9.30901442 C28.8921752,9.15832033 28.7190221,8.96421751 28.5946191,8.74050481 C28.4661863,8.50082247 28.4019102,8.23311109 28.40781,7.9624399 L28.40781,7.82626202 C28.40781,7.7733774 28.4118564,7.72049279 28.4199492,7.66760817 C28.4469979,7.44707508 28.5036898,7.23101831 28.5885495,7.0250601 C28.7502447,6.64107008 28.9728465,6.28454719 29.2481141,5.9686899 C29.3877152,5.80606971 29.5354091,5.6375 29.6911958,5.46298077 C29.7312376,5.41091887 29.770137,5.35802212 29.8078673,5.30432692 L31.4871267,3.44014423 C32.0468799,2.81941106 32.606633,2.19471154 33.1663862,1.56604567 C33.4766108,1.83046875 33.7612082,2.07175481 34.0174808,2.28725962 C34.2737533,2.50342548 34.5502579,2.73215144 34.8456457,2.97475962 L30.7756333,7.54266827 L37.2242594,7.54266827 C37.8157094,7.54266827 38.3639978,7.64645433 38.8691244,7.8546875 C39.374251,8.06292067 39.8099143,8.34122596 40.1747655,8.68960337 C40.5404138,9.03825106 40.8335757,9.45312905 41.0379993,9.91123798 C41.2477381,10.3772837 41.3529447,10.8631611 41.3529447,11.3715144 C41.3529447,11.8104567 41.2045764,12.4054087 40.909863,13.1550481 L49.3769725,13.1550481 L49.3769725,15.3365385 L20.7520053,15.3365385 L20.7520053,15.3477764 C20.257647,15.3086969 19.7750637,15.1795651 19.3290184,14.9670072 C18.8586917,14.74339 18.4261008,14.450447 18.0463069,14.0983774 C17.6648281,14.4442253 17.2349468,14.7349367 16.7696651,14.9617187 C16.3144441,15.1811899 15.4458152,15.3100962 14.1631037,15.3477764 L14.1631037,15.3365385 L7.09065627,15.3365385 C6.99691447,15.8210937 6.88226624,16.2686298 6.74671156,16.6771635 C6.61048247,17.0863582 6.44525413,17.4347356 6.25102653,17.7222957 C5.83896728,18.3132812 5.26505169,18.7925481 4.53130297,19.1600962 C3.79620545,19.5269832 2.88846117,19.7107572 1.80739574,19.7107572 C1.20080364,19.7096598 0.595665544,19.6525566 0,19.5402043 L0,17.4380409 C0.276791546,17.5300867 0.561716708,17.5966997 0.851094561,17.6370192 C1.1407597,17.6783736 1.43307215,17.6993607 1.72579317,17.6998197 C2.09941154,17.6998197 2.46291389,17.6581731 2.81630023,17.5742188 C3.15831542,17.4958017 3.48512917,17.3636444 3.78406623,17.1828726 C4.07661177,17.0039833 4.32863205,16.7681988 4.52455896,16.4900841 C4.72687938,16.2058293 4.86715487,15.8594351 4.94471103,15.4502404 C4.98382631,14.9121394 5.01687198,14.3515625 5.04384803,13.7685096 C5.07082409,13.1854567 5.08431212,12.5753005 5.08431212,11.939363 L5.08431212,11.4620793 C5.08431212,11.2802885 5.08094011,11.1176683 5.07284729,10.9735577 L5.07284729,7.05348558 L7.32399915,7.05348558 L7.32399915,11.8144231 C7.32399915,11.9585337 7.32197595,12.1079327 7.31725514,12.2632813 L7.30646471,12.7286659 C7.30241831,12.8840144 7.29634869,13.0261418 7.28893028,13.1550481 L14.1631037,13.1550481 L14.1637781,13.1550481 Z M27.3699062,7.00853365 C27.2599893,6.6710457 27.228196,6.31378605 27.2768388,5.96274038 C27.3159541,5.70492788 27.3800222,5.47091346 27.4690432,5.25871394 C27.5587386,5.04651442 27.6673172,4.84753606 27.7961279,4.66177885 C27.9242642,4.47668269 28.0658885,4.29489183 28.2210008,4.11640625 C28.3767875,3.93858173 28.5366206,3.75480769 28.6998258,3.56574519 L31.5457997,0.372836538 L32.5250305,1.22560096 L27.3699062,7.00853365 L27.3699062,7.00853365 Z M139.231517,15.1461538 L139.231517,15.1620192 C138.710736,15.1282352 138.2017,14.9950733 137.732997,14.770012 C136.815108,14.3332456 136.092928,13.5811262 135.703723,12.6566106 C135.504126,12.1830036 135.403233,11.6750341 135.406886,11.1626202 L135.406886,1.65264423 L137.63386,1.65264423 L137.63386,11.1170072 C137.63386,11.3827524 137.67837,11.6227163 137.768066,11.8388822 C137.925432,12.2446516 138.230891,12.5786967 138.62523,12.776262 C138.791133,12.8602163 138.962431,12.9190505 139.139124,12.9534255 L140.172307,12.9534255 L140.160168,8.98840144 C140.160168,8.43509615 140.269421,7.91682692 140.487252,7.43161058 C140.698186,6.95648104 140.998853,6.52472142 141.373416,6.15907452 C141.75104,5.79259856 142.196141,5.49964254 142.685126,5.29573317 C143.191674,5.08266599 143.737647,4.97441651 144.288853,4.97776442 C144.661797,4.97776442 145.025299,5.02866587 145.37936,5.13112981 C145.729387,5.231826 146.064482,5.37694595 146.376125,5.56280048 C146.687024,5.74789663 146.97297,5.97199519 147.233289,6.23311298 C147.493608,6.49423077 147.720882,6.78377404 147.915784,7.10240385 L149.909988,7.10240385 C150.47716,7.10240385 151.009263,7.20817308 151.507645,7.4203726 C151.994253,7.62532788 152.437173,7.91820366 152.813286,8.28371394 C153.189091,8.65076756 153.490075,9.08467247 153.700124,9.56219952 C153.918637,10.0549549 154.029812,10.5869943 154.026535,11.1242788 L154.026535,12.9534255 L155.787397,12.9534255 C156.215831,12.8911681 156.610287,12.6889911 156.906903,12.3796274 C157.055271,12.2242788 157.171268,12.0391827 157.256917,11.8230168 C157.342566,11.607512 157.385054,11.366887 157.385054,11.1018029 L157.385054,6.875 L159.612601,6.875 L159.612601,11.1018029 C159.612601,11.366226 159.657112,11.607512 159.746807,11.8230168 C159.904173,12.2287862 160.209633,12.5628313 160.603971,12.7603966 C160.798199,12.8595553 161.000519,12.9230168 161.210258,12.9534255 C161.212281,12.9554087 161.21363,12.9540865 161.215653,12.9534255 C161.425392,12.9230168 161.627038,12.8588942 161.82194,12.7603966 C162.216279,12.5628313 162.521739,12.2287862 162.679105,11.8230168 C162.7688,11.607512 162.81331,11.366887 162.81331,11.1018029 L162.81331,6.875 L165.040858,6.875 L165.040858,11.1018029 C165.040858,11.3972957 165.09481,11.6623798 165.204063,11.8970553 C165.312642,12.1317308 165.454941,12.328726 165.628936,12.4880409 C165.804281,12.6466947 166.004578,12.7683293 166.229828,12.8516226 C166.455752,12.9349159 166.685049,12.9765625 166.917717,12.9765625 C167.39096,12.9760327 167.846773,12.8014666 168.195034,12.4873798 C168.370378,12.328726 168.512002,12.1317308 168.620581,11.8970553 C168.729834,11.6623798 168.783786,11.3972957 168.783786,11.1018029 L168.783786,6.875 L171.034938,6.875 L171.034938,11.1018029 C171.034938,11.3972957 171.087541,11.6603966 171.192073,11.8911058 C171.385906,12.3286353 171.751967,12.6707643 172.207047,12.8397236 C172.428251,12.9230168 172.656199,12.9686298 172.888867,12.9765625 C173.12221,12.9686298 173.349483,12.9236779 173.571361,12.8397236 C174.026706,12.6691984 174.393928,12.3277995 174.591731,11.8911058 C174.700309,11.6597356 174.754936,11.3972957 174.754936,11.1018029 L174.754936,6.875 L176.982484,6.875 L176.982484,11.1018029 C176.982484,11.366226 177.026994,11.607512 177.11669,11.8230168 C177.274967,12.2263454 177.577457,12.5595029 177.967784,12.7603966 C178.15864,12.8595553 178.358937,12.9230168 178.568001,12.9534255 L181.299327,12.9534255 C182.286651,12.9230168 182.877426,12.8588942 183.072328,12.7603966 C183.266556,12.661899 183.437854,12.535637 183.584873,12.3796274 C183.733242,12.2242788 183.849913,12.0391827 183.935562,11.8230168 C184.020537,11.607512 184.063698,11.366887 184.063698,11.1018029 L184.063698,6.875 L186.290572,6.875 L186.290572,11.1018029 C186.290572,11.366226 186.335757,11.607512 186.425452,11.8230168 C186.582818,12.2287862 186.888277,12.5628313 187.282616,12.7603966 C187.476169,12.8595553 187.67849,12.9230168 187.888229,12.9534255 L193.783846,12.9534255 C195.587869,12.9996995 196.586658,12.8588942 196.78156,12.7603966 C197.175645,12.5627022 197.480849,12.2286733 197.63805,11.8230168 C197.727745,11.607512 197.77293,11.366887 197.77293,11.1018029 L197.77293,6.875 L199.999904,6.875 L199.999904,11.1474159 C200.003556,11.6598298 199.902663,12.1677992 199.703067,12.6414063 C199.312374,13.5669477 198.587896,14.3192106 197.667723,14.7548077 C197.201038,14.9782452 195.906861,15.1957332 193.783846,15.1580529 L187.888903,15.1580529 L187.888903,15.1468149 C187.394545,15.1077353 186.911961,14.9786035 186.465916,14.7660457 C185.995783,14.5421681 185.563421,14.2490029 185.183879,13.8967548 C184.802193,14.2426546 184.372082,14.5333681 183.906563,14.7600962 C183.452016,14.9795673 182.582713,15.1084736 181.300001,15.1468149 L178.568676,15.1468149 C178.076407,15.108095 177.595968,14.9789246 177.152433,14.7660457 C176.684295,14.5412115 176.253631,14.2481187 175.875117,13.8967548 C175.458705,14.2707954 174.984307,14.5776051 174.469664,14.8057091 C173.97967,15.0228084 173.450639,15.1425634 172.913146,15.1580529 C172.369341,15.1564837 171.832258,15.0401447 171.338418,14.8169471 C170.813606,14.5818343 170.329771,14.2672961 169.904641,13.8848558 C169.437955,14.3092548 168.953735,14.6186298 168.452655,14.8109976 C167.958316,15.0027466 167.437127,15.1197668 166.906927,15.1580529 C166.374748,15.1462379 165.850081,15.0323763 165.362548,14.8228966 C164.831416,14.5980377 164.344037,14.2846912 163.922026,13.8967548 C163.540341,14.2426546 163.110229,14.5333681 162.64471,14.7600962 C162.198304,14.9776362 161.713357,15.1089302 161.216328,15.1468149 L161.210933,15.1448317 L161.210933,15.1468149 C160.716574,15.1077353 160.233991,14.9786035 159.787946,14.7660457 C159.317575,14.5422263 158.884981,14.2490586 158.505234,13.8967548 C158.123755,14.2426027 157.693874,14.5333141 157.228592,14.7600962 C156.778295,14.9787025 156.289166,15.1100128 155.788071,15.1468149 L139.232191,15.1468149 L139.231517,15.1461538 Z M142.39918,12.9397234 L144.288853,12.9397234 C144.522196,12.9397234 144.751492,12.9053484 144.976742,12.8372595 C145.201992,12.7691705 145.40229,12.6574518 145.57696,12.5021032 C145.752304,12.3467547 145.893928,12.1497595 146.003181,11.9111177 C146.11176,11.6731369 146.166386,11.3868989 146.166386,11.0537258 L146.166386,8.99717536 C146.166386,8.66400228 146.112434,8.37578113 146.003181,8.13383401 C145.906094,7.90754256 145.761039,7.70406703 145.577634,7.53689891 C145.40229,7.38155036 145.199969,7.26586526 144.970673,7.19050468 C144.747551,7.11560135 144.512445,7.08088757 144.276714,7.08804074 C144.044045,7.10324507 143.814749,7.15414651 143.588824,7.24140613 C143.366859,7.32655644 143.163239,7.45191801 142.988607,7.61093738 C142.813263,7.76959122 142.671638,7.9652643 142.56306,8.19597343 C142.453807,8.42734363 142.39918,8.69374988 142.39918,8.99717536 L142.39918,12.9397234 L142.39918,12.9397234 Z M148.416864,9.23581778 L148.416864,11.0874404 C148.416864,11.3452529 148.380446,11.6275245 148.306262,11.9335942 C148.232078,12.240986 148.129569,12.5682096 147.997386,12.916587 L151.798987,12.916587 L151.798987,11.0762024 C151.798987,10.8487985 151.7565,10.6233779 151.670851,10.3999404 C151.587227,10.1797327 151.458206,9.97877888 151.291837,9.80961585 C151.116984,9.63377006 150.909035,9.49279165 150.67948,9.39447162 C150.418051,9.28454119 150.135732,9.23045652 149.851316,9.23581778 L148.416864,9.23581778 L148.416864,9.23581778 Z M190.527161,19.0477163 C191.23403,18.3326615 191.94803,17.6244143 192.66906,16.9230769 C193.048748,17.2800481 193.41225,17.6251202 193.759567,17.9569712 C194.134359,18.3158586 194.504411,18.6794706 194.869632,19.0477163 C194.507827,19.3875157 194.15081,19.7321797 193.798682,20.0816106 C193.429944,20.4468363 193.053318,20.8043291 192.66906,21.1538462 L190.527161,19.0477163 L190.527161,19.0477163 Z M186.184691,19.0477163 C186.891558,18.3326608 187.605559,17.6244136 188.32659,16.9230769 C188.706278,17.2800481 189.06978,17.6251202 189.417097,17.9569712 C189.791888,18.3158585 190.161941,18.6794704 190.527161,19.0477163 C190.165357,19.3875159 189.80834,19.7321799 189.456212,20.0816106 C189.087695,20.446829 188.711294,20.8043217 188.327264,21.1538462 L186.185365,19.0477163 L186.184691,19.0477163 Z M180.214215,19.0477163 C180.921083,18.3326615 181.635084,17.6244143 182.356114,16.9230769 C182.735802,17.2800481 183.099304,17.6251202 183.445947,17.9569712 C183.820964,18.3158545 184.191241,18.6794665 184.556686,19.0477163 C184.194881,19.3875159 183.837864,19.73218 183.485736,20.0816106 C183.116775,20.4468434 182.739924,20.8043363 182.35544,21.1538462 L180.214215,19.0477163 L180.214215,19.0477163 Z M175.87107,19.0477163 C176.577938,18.3326608 177.291938,17.6244136 178.012969,16.9230769 C178.393331,17.2800481 178.756834,17.6251202 179.103476,17.9569712 C179.478494,18.3158542 179.848771,18.6794662 180.214215,19.0477163 C179.85241,19.3875159 179.495393,19.7321799 179.143266,20.0816106 C178.774304,20.4468431 178.397453,20.804336 178.012969,21.1538462 L175.87107,19.0477163 L175.87107,19.0477163 Z M153.615824,3.71117788 C154.322692,2.99612232 155.036692,2.28787516 155.757723,1.58653846 C156.138085,1.94350962 156.501588,2.28858173 156.84823,2.62043269 C157.223248,2.97931567 157.593525,3.34292767 157.958969,3.71117788 C157.597164,4.05097745 157.240147,4.3956415 156.88802,4.74507212 C156.519058,5.11030467 156.142207,5.4677975 155.757723,5.81730769 L153.615824,3.71117788 L153.615824,3.71117788 Z M194.869632,19.0477163 C195.576499,18.3326608 196.2905,17.6244136 197.011531,16.9230769 C197.391219,17.2800481 197.754721,17.6251202 198.102038,17.9569712 C198.476829,18.3158588 198.846881,18.6794707 199.212102,19.0477163 C198.850298,19.387516 198.493281,19.7321801 198.141153,20.0816106 C197.772414,20.4468363 197.395788,20.8043291 197.011531,21.1538462 L194.869632,19.0477163 L194.869632,19.0477163 Z M167.729022,3.71117788 C168.43589,2.996123 169.149891,2.28787584 169.870921,1.58653846 C170.250609,1.94350962 170.614111,2.28858173 170.961428,2.62043269 C171.33622,2.97931994 171.706272,3.34293193 172.071493,3.71117788 C171.709688,4.05097745 171.352671,4.3956415 171.000543,4.74507212 C170.631805,5.11029787 170.255178,5.46779066 169.870921,5.81730769 L167.729022,3.71117788 L167.729022,3.71117788 Z M163.386552,3.71117788 C164.093419,2.99612232 164.80742,2.28787516 165.52845,1.58653846 C165.908138,1.94350962 166.271641,2.28858173 166.618957,2.62043269 C166.993749,2.97932009 167.363801,3.34293208 167.729022,3.71117788 C167.367217,4.05097745 167.0102,4.3956415 166.658073,4.74507212 C166.289334,5.11029759 165.912708,5.46779037 165.52845,5.81730769 L163.386552,3.71117788 L163.386552,3.71117788 Z M172.071493,3.71117788 C172.77836,2.99612166 173.49236,2.2878745 174.213392,1.58653846 C174.59308,1.94350962 174.956582,2.28858173 175.303899,2.62043269 C175.67869,2.9793203 176.048742,3.34293229 176.413963,3.71117788 C176.052159,4.05097757 175.695142,4.39564161 175.343014,4.74507212 C174.974275,5.11029787 174.597649,5.46779066 174.213392,5.81730769 L172.071493,3.71117788 L172.071493,3.71117788 Z M131.07126,6.06520433 C131.475901,6.3983774 131.88189,6.76989183 132.289903,7.17842548 C132.693789,7.58241424 133.066204,8.01551938 133.404014,8.47409856 C133.737843,8.92824519 134.014348,9.39825721 134.232179,9.8828125 C134.449337,10.3673678 134.574101,10.8479567 134.605123,11.3259014 C134.605123,11.8633413 134.494521,12.375 134.272643,12.8595553 C133.836487,13.8228321 133.048003,14.5909985 132.06263,15.0126202 C131.563092,15.2289457 131.022547,15.339331 130.476438,15.3365902 L127.561001,15.3365902 L127.561001,13.1550481 L130.429904,13.1550481 C130.756314,13.1550481 131.042261,13.1001803 131.287068,12.9897837 C131.531876,12.8807091 131.734196,12.7385817 131.89403,12.5640625 C132.053188,12.3902043 132.173232,12.191226 132.254834,11.9677885 C132.337111,11.744351 132.381622,11.5228966 132.389715,11.3027644 C132.350599,11.0383413 132.241346,10.7540865 132.06263,10.4506611 C131.868228,10.1264241 131.643832,9.82038913 131.392275,9.53641827 C131.110199,9.21552037 130.810311,8.91009012 130.493972,8.62151442 C130.163516,8.31875 129.83171,8.03052885 129.497207,7.75817308 L131.07126,6.06520433 L131.07126,6.06520433 Z" id="path-1"></path>
    </defs>
    <g stroke="none" stroke-width="1" fill="none" fill-rule="evenodd">
        <path d="M47.2610192,49 C36.7134582,49 27.4021097,42.1135839 24.3132336,32.0284519 L24.3132336,32.0284519 L18.5484572,13.2065468 C16.1448234,5.35872011 8.89912255,1.50772444e-15 0.691453008,0 L0.691453008,0 L268.691453,0 C260.483783,1.50772444e-15 253.238083,5.35872011 250.834449,13.2065468 L245.069672,32.0284519 C241.980796,42.1135839 232.669448,49 222.121887,49 Z" id="Combined-Shape" fill="#8483ae"></path>
    </g>
</svg>